<?xml version="1.0" encoding="utf-8"?>
<!-- Generator: Adobe Illustrator 30.1.0, SVG Export Plug-In . SVG Version: 9.03 Build 0)  -->
<svg version="1.0" id="Calque_1" xmlns="http://www.w3.org/2000/svg" xmlns:xlink="http://www.w3.org/1999/xlink" x="0px" y="0px"
	 viewBox="0 0 378.6 181" style="enable-background:new 0 0 378.6 181;" xml:space="preserve">
<style type="text/css">
	.st0{fill:#FFFFFF;}
</style>
<g>
	<rect x="65.8" y="175" class="st0" width="200.1" height="6"/>
	
		<rect x="262.6" y="131.7" transform="matrix(1 -7.767541e-03 7.767541e-03 1 -1.2027 2.0678)" class="st0" width="6" height="48.3"/>
	
		<rect x="62.8" y="131.7" transform="matrix(1 -7.888902e-03 7.888902e-03 1 -1.2275 0.5243)" class="st0" width="6" height="48.3"/>
	<g>
		<g transform="translate(62.261789, 201.77344)">
			<g>
				<path class="st0" d="M63.3-163c-3.6,6-8.1,11.4-13.5,16.3c-5.4,4.9-11.4,9.1-17.8,12.7c-6.4,3.6-12.8,6.5-19.2,8.8
					c-6.4,2.2-12.3,3.8-17.7,4.6c-0.7,0.1-1.2,0.4-1.5,1.1c-0.3,0.6-0.2,1.2,0.1,1.8c2.2,3.6,4.6,7.2,7.3,11
					c2.7,3.8,5.6,7.2,8.7,10.4c3.1,3.2,6.5,5.8,10,7.8c3.5,2,7.3,3,11.3,3c0.6,0,1.2,0,1.8-0.1c2.8-0.2,5.4-0.9,7.5-2.2
					c2.2-1.2,4-2.7,5.5-4.4c1.5-1.7,2.7-3.4,3.6-5.1c0.9-1.7,1.6-3.1,2-4.2c0.4-1.1,0.6-1.7,0.6-1.8c0.2-0.7,0.7-1.3,1.3-1.6
					c0.7-0.4,1.4-0.5,2.1-0.3c0.8,0.3,1.3,0.8,1.7,1.4c0.4,0.7,0.4,1.4,0.2,2.1c-0.1,0.1-0.4,0.9-0.9,2.4c-0.5,1.4-1.4,3.1-2.5,5.1
					c-1.1,2-2.6,4-4.5,6.1c-1.8,2.1-4.1,3.8-6.8,5.3c-2.7,1.5-5.9,2.4-9.5,2.8c-0.8,0-1.6,0-2.4,0c-4.4,0-8.5-0.9-12.3-2.8
					c-3.8-1.9-7.4-4.4-10.7-7.5c-3.3-3.1-6.4-6.6-9.2-10.4c-2.8-3.8-5.4-7.5-7.7-11.2c-0.1-0.2-0.4-0.3-0.6-0.2
					c-0.3,0-0.4,0.1-0.4,0.4c-1.2,5.3-2.5,10-3.9,14.2c-1.4,4.2-3,7.7-4.8,10.4c-1.8,2.7-4,4.4-6.4,5c-1.1,0.3-2,0.1-2.8-0.6
					c-0.8-0.8-1-1.7-0.8-2.8c0.3-1.1,0.9-1.7,2-1.9c1.4-0.4,2.6-1.5,3.8-3.4c1.2-1.9,2.3-4.4,3.3-7.4c1-3,2-6.3,2.9-10
					c0.9-3.7,1.7-7.4,2.5-11.2c0.1-0.3,0-0.6-0.1-0.6c-0.1-0.1-0.3-0.1-0.4-0.1c-2.5,0-4.9-0.5-7.4-1.4c-2.1-0.7-3.6-2.1-4.6-4
					c-1-2-1.2-4.1-0.5-6.2c0.1-0.4,0.3-1,0.6-1.9c0.3-0.8,0.8-1.6,1.4-2.3c0.6-0.7,1.5-1.2,2.6-1.3c1.6-0.2,3.2,0.4,4.6,1.7
					c1.4,1.3,3,3.4,4.8,6.2c0.3,0.4,0.5,0.5,0.7,0.4c0.2-0.1,0.3-0.3,0.5-0.6c1.1-5.8,2.3-11.2,3.4-16.4c1.1-5.2,2.4-9.8,3.8-13.9
					c1.4-4.1,3-7.5,4.8-10.1c1.8-2.6,4-4.2,6.5-4.8c0.7-0.2,1.4-0.1,2.1,0.3c0.7,0.4,1.1,1,1.2,1.7c0.2,0.8,0.1,1.5-0.3,2.1
					c-0.4,0.6-1,1.1-1.8,1.3c-1.6,0.4-3.1,2-4.5,4.6c-1.3,2.6-2.6,6-3.8,10c-1.2,4-2.3,8.4-3.3,13.1c-1,4.7-2,9.2-2.8,13.6
					c-0.1,0.2-0.1,0.3-0.1,0.4c0,0.1,0,0.2-0.1,0.3c0,0.2,0.1,0.4,0.2,0.6c0.2,0.2,0.3,0.3,0.4,0.3c3.9-0.6,8.2-1.7,12.9-3.1
					c4.7-1.5,9.5-3.3,14.5-5.6c5-2.3,9.8-4.9,14.5-8c4.7-3.1,9-6.5,13-10.4c4-3.8,7.3-8.1,9.9-12.7c6.6-11.2,7.4-19.2,2.4-24.2
					c-2.6-2.5-6.4-4.2-11.4-5.2c-5-1-10.9-1.2-17.6-0.7c-6.7,0.5-13.8,1.6-21.2,3.4c-7.5,1.8-14.9,4.1-22.3,7.1
					c-7.4,2.9-14.4,6.4-21,10.4c-2.6,1.6-5.5,3.6-8.6,6c-3.1,2.3-5.9,5-8.6,8c-2.6,3-4.5,6.2-5.8,9.5c-1.2,3.4-1.2,6.9-0.1,10.5
					c0.2,0.8,0.1,1.5-0.2,2.2c-0.3,0.7-0.9,1.1-1.7,1.3c-0.7,0.2-1.4,0.1-2.1-0.2c-0.7-0.4-1.1-0.9-1.4-1.6
					c-2.1-6.8-0.9-13.6,3.5-20.6c4.4-7,11.8-13.6,22.1-20c5.3-3.2,11.1-6.2,17.4-8.9c6.3-2.7,12.7-5,19.3-6.9
					c6.6-1.9,13.1-3.4,19.5-4.4c6.4-1,12.5-1.6,18.2-1.6c5.7,0,10.8,0.6,15.3,1.9c4.4,1.2,8,3.2,10.7,5.8c1.6,1.6,2.9,3.7,3.9,6.4
					c1,2.7,1.2,6.1,0.5,10.1C68.5-173.6,66.6-168.7,63.3-163z M-20-126.6c0.4,0.1,0.8,0.2,1.2,0.3c0.2,0.1,0.3,0.1,0.5,0
					c0.2-0.1,0.2-0.2,0-0.5c-0.9-1.4-1.9-2.6-2.9-3.9c-0.3-0.3-0.5-0.2-0.6,0.3c-0.3,0.8-0.3,1.5-0.1,2.1
					C-21.8-127.6-21.1-127.1-20-126.6z"/>
			</g>
		</g>
	</g>
	<g>
		<g transform="translate(157.372554, 201.77344)">
			<g>
				<path class="st0" d="M57.7-108.6c0.5,0.6,0.7,1.2,0.6,2c-0.1,0.8-0.4,1.4-1.1,1.9c-0.3,0.2-1.6,1.2-3.8,2.8
					c-2.3,1.7-5.3,3.7-9.2,6c-3.8,2.3-8.3,4.6-13.3,6.9c-5,2.3-10.4,4.2-16.2,5.7C8.9-81.9,3-81.1-3.1-81.1
					c-7.2,0.1-14.2-1.2-20.9-3.9c-3.7-1.5-6.3-3.2-7.8-5.2c-1.5-2-2.4-4-2.6-5.9c-0.2-1.9-0.2-3.5,0.1-4.9c0.6-2.6,1.9-5.2,3.7-7.6
					c1.9-2.5,4-4.7,6.5-6.6c2.5-2,5-3.5,7.6-4.5c2.6-1.1,5-1.5,7.1-1.4c1.9,0,3.6,0.7,5,2c1.4,1.3,2.2,3,2.3,5
					c0.1,1.1-0.2,2.5-0.9,4.2c-0.6,1.7-2.3,3.4-4.9,5.1c-6,3.8-12.7,5.5-19.8,5c-0.4-0.1-0.7,0-1,0.2c-0.3,0.2-0.4,0.5-0.3,0.9
					c-0.1,0.6,0,1.5,0.2,2.5c0.2,1,0.8,2,1.8,3.1c1,1.1,2.7,2.1,5,3c4.8,2.1,9.8,3.2,14.9,3.5c5.1,0.3,10.1,0,15-1
					c4.9-0.9,9.6-2.2,14.1-3.9c4.5-1.7,8.7-3.5,12.5-5.5c3.8-2,7.1-3.9,10-5.6c2.8-1.8,5.1-3.3,6.7-4.5c1.6-1.2,2.5-1.8,2.5-1.8
					c0.6-0.5,1.4-0.7,2.1-0.6C56.6-109.6,57.2-109.3,57.7-108.6z M-25.2-106.4c-0.8,1.1-0.7,1.6,0.3,1.8c1,0.1,2.3-0.1,4.1-0.6
					c1.8-0.5,3.6-1.2,5.5-2c1.9-0.8,3.4-1.6,4.5-2.3c2.2-1.5,3.2-2.8,3.1-4c-0.1-0.8-0.3-1.3-0.6-1.6c-0.3-0.2-0.8-0.4-1.3-0.5
					c-2.3-0.1-4.9,0.7-7.9,2.4C-20.5-111.5-23.1-109.2-25.2-106.4z"/>
			</g>
		</g>
	</g>
	<g>
		<g transform="translate(221.446327, 201.77344)">
			<g>
				<path class="st0" d="M82.8-107.8c0.6,0.5,0.9,1.1,0.9,1.9c0,0.8-0.2,1.5-0.8,2c-0.1,0.2-0.9,1-2.4,2.4c-1.4,1.4-3.3,3.1-5.8,5
					c-2.4,1.9-5.2,3.9-8.4,5.9c-3.2,2-6.6,3.6-10.3,5c-3.7,1.3-7.5,2.1-11.5,2.4c-3.9,0.2-7.9-0.5-11.9-2.1
					c-5.5-2.8-9.8-6.8-12.9-12.2c-0.4-0.6-1-1.5-1.8-2.7c-0.8-1.2-1.8-1.8-3.2-1.7c-0.6,0-1.6,0.2-2.8,0.6c-1.2,0.4-2.8,1.2-4.8,2.4
					c-2,1.2-4.3,3-7,5.5c-2.7,2.5-5.9,5.8-9.5,10c-0.9,1.1-2.1,1.3-3.4,0.6c-1.3-0.6-1.7-1.7-1.4-3.1l5.3-23.5
					c0.1-0.7,0.5-1.3,1.2-1.7c0.7-0.4,1.4-0.5,2.1-0.3c0.8,0.1,1.4,0.6,1.8,1.2c0.4,0.7,0.5,1.4,0.4,2.1l-2.5,10.6
					c-0.1,0.3,0.1,0.6,0.4,0.8c0.3,0.2,0.7,0.1,1-0.2c7.9-7.5,14.5-11,19.9-10.7c2.3,0.1,4.2,1.1,5.8,2.8c1.2,1.3,2.3,2.7,3.2,4.2
					c2.4,4.4,5.8,7.8,10.2,10.1c3.4,1.4,6.9,2,10.3,1.7c3.5-0.3,6.9-1.1,10.1-2.4c3.3-1.3,6.3-2.8,9.2-4.6c2.8-1.8,5.4-3.6,7.5-5.4
					c2.2-1.8,3.9-3.3,5.1-4.5c1.2-1.2,1.8-1.8,1.9-1.9c0.5-0.6,1.1-0.9,1.9-0.9C81.5-108.5,82.2-108.3,82.8-107.8z"/>
			</g>
		</g>
	</g>
	<g>
		<g transform="translate(288.079844, 201.77344)">
			<g>
				<path class="st0" d="M89.6-111.5c0.6,0.6,0.9,1.2,0.9,2c0,0.8-0.3,1.4-0.9,1.9c-4.6,4.6-9.4,8.2-14.5,10.8
					C70-94.1,64.9-92.2,59.8-91c-5.1,1.1-10,1.7-14.6,1.6c-4.6-0.1-8.6-0.7-12-1.7c-0.5-0.1-0.9,0-1.2,0.5c-0.9,2.1-2.3,3.8-4.2,5.1
					c-1.9,1.3-4,2-6.3,2c-2.3,0-4.5-0.6-6.5-1.7c-2.7-1.3-4.6-3.3-5.8-6c-1.1-2.7-1.2-5.5-0.3-8.3c0.6-2.5,1.7-4.8,3.3-7.1
					c1.6-2.2,3.3-4.1,5.3-5.5c2-1.4,3.9-2.1,5.7-2.1h0.1c0.8,0,1.4,0.3,2,0.9c0.5,0.6,0.8,1.2,0.8,2c0,0.7-0.3,1.3-0.9,1.9
					c-0.6,0.5-1.2,0.8-2,0.8c-0.6,0-1.6,0.5-2.8,1.5c-1.2,1-2.4,2.3-3.6,3.9c-1.2,1.6-2,3.3-2.5,5.2c-0.6,1.6-0.5,3.1,0.1,4.6
					c0.6,1.5,1.7,2.6,3.2,3.2c1.3,1,2.7,1.4,4.3,1.2c1.6-0.2,2.9-0.9,3.9-2.1c0.3-0.4,0.7-1,1.2-1.6c0.4-0.7,0.3-1.2-0.3-1.7
					c-2-1.3-3.2-3.1-3.8-5.4c-0.5-2.3-0.1-4.5,1.2-6.5c1.7-2.9,3.3-4.5,4.7-4.9c1.4-0.4,2.6-0.3,3.6,0.3c1.4,0.8,2.3,2.3,2.7,4.6
					c0.4,2.3,0.3,4.8-0.1,7.4c-0.1,0.6,0,1.3,0.4,1.9c0.4,0.6,1,1,1.6,1.1c6,1,11.9,1,17.8,0.1c5.9-0.9,11.5-2.7,16.8-5.4
					c5.3-2.7,10.1-6.1,14.4-10.4c0.5-0.6,1.1-0.9,1.9-0.9C88.4-112.4,89.1-112.1,89.6-111.5z M29.3-99.5c0.3-1.7,0.3-3.4,0.2-5.2
					c-0.1,0.2-0.2,0.4-0.3,0.6c-0.1,0.2-0.3,0.4-0.4,0.6c-0.4,0.6-0.6,1.4-0.5,2.1C28.3-100.6,28.6-100,29.3-99.5z"/>
			</g>
		</g>
	</g>
	<g>
		<g transform="translate(163.110403, 229.025611)">
			<g>
				<path class="st0" d="M-28.5-72.1v-11.2h4.4c0.9,0,1.7,0.2,2.3,0.5c0.7,0.3,1.2,0.8,1.5,1.4c0.4,0.6,0.6,1.3,0.6,2.1
					c0,0.8-0.2,1.5-0.6,2.1c-0.4,0.6-0.9,1.1-1.5,1.4c-0.7,0.3-1.4,0.5-2.3,0.5H-26v3.1H-28.5z M-26-77.5h1.6c0.7,0,1.2-0.2,1.5-0.5
					c0.4-0.3,0.5-0.8,0.5-1.4c0-0.6-0.2-1-0.5-1.4c-0.3-0.3-0.9-0.5-1.5-0.5H-26V-77.5z"/>
			</g>
		</g>
	</g>
	<g>
		<g transform="translate(174.090539, 229.025611)">
			<g>
				<path class="st0" d="M-24.9-72.1v-11.2h2.5v11.2H-24.9z"/>
			</g>
		</g>
	</g>
	<g>
		<g transform="translate(181.014672, 229.025611)">
			<g>
				<path class="st0" d="M-22.6-72.1v-11.2h2.5v8.8h4.9v2.4H-22.6z"/>
			</g>
		</g>
	</g>
	<g>
		<g transform="translate(190.926811, 229.025611)">
			<g>
				<path class="st0" d="M-14-71.9c-1.2,0-2.2-0.2-3.1-0.8c-0.9-0.5-1.6-1.2-2.1-2.1c-0.5-0.9-0.8-1.9-0.8-3c0-1.1,0.2-2.1,0.8-3
					c0.5-0.9,1.2-1.6,2.1-2c0.9-0.5,1.9-0.8,3.1-0.8c1.2,0,2.2,0.2,3.1,0.8c0.9,0.5,1.6,1.2,2.1,2c0.5,0.9,0.8,1.9,0.8,3
					c0,1.1-0.3,2.1-0.8,3c-0.5,0.9-1.2,1.6-2.1,2.1C-11.8-72.2-12.8-71.9-14-71.9z M-17.4-77.8c0,0.7,0.1,1.3,0.4,1.8
					c0.3,0.5,0.7,0.9,1.2,1.2c0.5,0.3,1.1,0.4,1.8,0.4c0.7,0,1.3-0.1,1.8-0.4c0.5-0.3,0.9-0.7,1.2-1.2c0.3-0.5,0.4-1.1,0.4-1.8
					c0-0.7-0.1-1.3-0.4-1.8c-0.3-0.5-0.7-0.9-1.2-1.2c-0.5-0.3-1.1-0.4-1.8-0.4c-0.7,0-1.2,0.1-1.8,0.4c-0.5,0.3-0.9,0.7-1.2,1.2
					C-17.2-79-17.4-78.4-17.4-77.8z"/>
			</g>
		</g>
	</g>
	<g>
		<g transform="translate(203.922961, 229.025611)">
			<g>
				<path class="st0" d="M-12.3-72.1V-81h-3.6v-2.4h9.6v2.4h-3.5v8.8H-12.3z"/>
			</g>
		</g>
	</g>
	<path class="st0" d="M68.7,60c-1.1,0-2.2-0.6-2.7-1.7c-0.7-1.5-0.1-3.3,1.4-4l94.3-45.6c1.5-0.7,3.3-0.1,4,1.4
		c0.7,1.5,0.1,3.3-1.4,4L70,59.7C69.6,59.9,69.2,60,68.7,60z"/>
	<path class="st0" d="M263.1,60.1c-0.4,0-0.9-0.1-1.3-0.3l-97.4-45.7c-1.5-0.7-2.1-2.5-1.4-4c0.7-1.5,2.5-2.1,4-1.4l97.4,45.7
		c1.5,0.7,2.1,2.5,1.4,4C265.3,59.4,264.2,60.1,263.1,60.1z"/>
</g>
</svg>
